<?xml version="1.0" encoding="UTF-8"?>
<svg xmlns="http://www.w3.org/2000/svg" viewBox="0 0 256 70" role="img" aria-labelledby="title desc">
<title id="title">Kinstone logo</title>
<desc id="desc">Smooth transparent vector SVG logo for website use.</desc>
<g transform="translate(-4 0)" fill-rule="evenodd">
<path fill="#f41111" d="M27.5 0C22.77 6.91 6.34 56.81 6.44 63.75C6.54 70.69 25.59 65.24 28.44 64.06C31.29 62.88 31.04 54.83 32.75 52.88C34.46 50.92 42.37 44.79 44.25 46C46.13 47.21 46.67 62.11 50.12 64.06C53.58 66.01 73.33 64.42 76.12 64C78.92 63.58 77.01 63.6 75.94 60.19C74.86 56.77 64.9 37.1 66.19 32.5C67.47 27.9 85.21 19.63 87.81 17.75C90.41 15.87 92.71 15.46 90.19 15.12C87.67 14.79 67.83 14.56 64.56 14.62C61.3 14.69 62.57 14.14 60.06 15.69C57.55 17.24 43.3 28.19 41.38 28.94C39.45 29.68 42.07 23.44 42.31 22.56C42.56 21.68 42.78 23.26 43.62 20.81C44.47 18.37 51.87 2.25 50.12 0C48.38 -2.25 32.23 -6.91 27.5 0Z"/>
<path fill="#292929" d="M29.31 63.38C29.21 63.35 30.14 64.19 27.81 64.31C25.48 64.43 12.45 64.44 9.88 64.38C7.3 64.31 6.82 63.77 6.38 63.75C5.93 63.73 6.11 64.11 6.19 64.25C6.27 64.39 4.53 64.79 7.06 64.88C9.6 64.96 24.72 64.98 27.31 64.94C29.91 64.89 28.45 64.69 28.69 64.5C28.93 64.31 29.42 63.4 29.31 63.38ZM17.62 29.88C17.52 29.96 16.75 31.84 16.75 32C16.75 32.16 17.52 31.5 17.62 31.25C17.73 31 17.73 29.79 17.62 29.88ZM43.38 21.56C43.43 21.23 42.6 21.94 42.44 22.38C42.27 22.81 41.89 25.29 42 25.19C42.11 25.09 43.32 21.9 43.38 21.56ZM77.12 63.62C77.2 63.24 76.34 61.8 76.25 61.81C76.16 61.83 76.5 63.44 76.38 63.75C76.25 64.06 78.4 64.36 75.19 64.38C71.98 64.39 52.48 63.81 49.62 63.88C46.77 63.94 48.32 64.8 51.44 64.94C54.56 65.07 72.54 65.16 75.62 65C78.71 64.84 77.05 64.01 77.12 63.62ZM64.38 14.56C64.16 14.48 62.14 14.5 61.62 14.62C61.11 14.75 59.84 15.54 60.06 15.62C60.28 15.71 62.92 15.44 63.44 15.31C63.95 15.19 64.59 14.64 64.38 14.56ZM97.88 33.69C96.9 33.47 91.26 33.49 90.06 33.56C88.86 33.63 89.22 30.91 87.88 34.25C86.53 37.59 80 57.7 78.88 61.38C77.75 65.05 77.47 64.43 78.5 64.88C79.53 65.32 86.33 65.11 87.5 65.06C88.67 65.02 86.97 68.06 88.25 64.5C89.53 60.94 97.03 39.07 98.19 35.38C99.34 31.68 98.85 33.91 97.88 33.69ZM86.06 14.56C86.08 14.62 89.91 14.67 90.19 15C90.47 15.33 88.28 17.26 88.38 17.31C88.47 17.36 90.8 15.77 91 15.44C91.2 15.11 90.66 14.67 90.06 14.56C89.47 14.46 86.05 14.51 86.06 14.56ZM89 31.88C90.06 32.38 97.36 32.8 98.75 32.25C100.14 31.7 101.55 27.9 100.62 27.25C99.7 26.6 92.34 26.72 91.06 26.81C89.78 26.9 90.19 27.39 89.94 28C89.69 28.61 87.94 31.36 89 31.88ZM121.69 34.62C121.13 34.19 118.88 32.91 117.75 32.94C116.62 32.96 113.11 34.72 112.31 34.81C111.51 34.9 112.32 33.79 111.06 33.69C109.8 33.58 104.12 30.41 101.81 33.94C99.5 37.46 93 59.36 91.81 63.06C90.62 66.77 90.9 64.56 91.88 64.81C92.85 65.06 98.74 65.2 99.94 65.12C101.14 65.05 100.73 67.09 101.88 64.19C103.02 61.28 108.34 43.95 109.44 40.94C110.53 37.93 110.72 39.28 111 39.12C111.28 38.97 112.67 36.58 111.81 39.62C110.96 42.67 104.36 61.44 103.88 64.5C103.39 67.56 106.62 65.13 107.81 65.12C109 65.12 112.1 67.45 113.81 64.44C115.52 61.42 121.03 43.34 122.06 40C123.09 36.66 122.42 37.21 122.38 36.56C122.33 35.92 122.24 35.06 121.69 34.62ZM148.69 33.75C147.65 33.6 141.6 33.44 140.38 33.62C139.15 33.81 138.89 35.3 138.44 35.31C137.99 35.32 137.31 33.97 136.62 33.69C135.94 33.4 133.84 32.73 132.75 32.94C131.66 33.15 128.44 34.64 127.5 35.44C126.56 36.23 125.84 36.99 124.88 39.56C123.91 42.13 120.02 54.48 119.44 56.88C118.85 59.27 119.72 59.07 120 59.56C120.28 60.06 121.19 60.76 121.81 61C122.44 61.24 124.18 61.6 125.19 61.56C126.19 61.52 129.69 60.51 130.19 60.69C130.68 60.87 129.57 62.67 129.31 63.06C129.05 63.45 128.43 64.06 128 63.94C127.57 63.82 127.03 62.25 125.75 62.06C124.47 61.88 118.46 61.83 117.38 62.38C116.29 62.92 116.57 65.84 116.69 66.62C116.81 67.41 117.89 68.54 118.38 68.94C118.86 69.33 119.25 69.82 120.69 69.94C122.12 70.06 128.62 70.17 130.31 69.94C132.01 69.7 133.89 68.56 134.81 68C135.74 67.44 137.14 66.7 138 65.25C138.86 63.8 140.68 59.52 142 55.88C143.32 52.23 148.2 37.53 149 34.88C149.8 32.22 149.72 33.9 148.69 33.75ZM136.62 39.25C136.74 39.48 137.12 39.46 136.62 41.19C136.13 42.91 133.22 51.9 132.5 53.62C131.78 55.35 130.9 55.61 130.62 55.56C130.35 55.52 129.78 54.99 130.25 53.25C130.72 51.51 133.85 42.74 134.5 41.06C135.15 39.38 135.43 39.47 135.69 39.25C135.94 39.03 136.51 39.02 136.62 39.25ZM169 35C168.49 34.55 167.09 33.8 166.06 33.56C165.03 33.32 161.92 32.84 160.44 33C158.95 33.16 154.83 34.36 153.69 34.88C152.55 35.39 151.63 36.18 150.94 37.31C150.25 38.45 148.29 43.13 147.94 44.31C147.59 45.49 147.82 46.48 148 47.12C148.18 47.77 148.48 48.8 149.44 49.69C150.4 50.57 155.24 53.6 156 54.5C156.76 55.4 155.89 56.66 155.75 57.19C155.61 57.71 155.08 58.6 154.81 58.88C154.54 59.15 153.73 59.48 153.5 59.44C153.27 59.39 152.81 59.05 152.88 58.5C152.94 57.95 153.97 55.43 154.06 54.88C154.15 54.32 154.68 54 153.62 53.88C152.57 53.75 146.46 53.17 145.25 53.81C144.04 54.45 143.73 58.17 143.56 59.19C143.4 60.21 143.67 61.74 143.88 62.31C144.08 62.88 144.68 63.59 145.25 63.94C145.82 64.28 147.33 65.04 148.62 65.19C149.92 65.34 154.73 65.34 156.06 65.19C157.4 65.03 158.92 64.36 159.75 63.88C160.58 63.4 162.25 62.24 163 61.19C163.75 60.13 165.62 56.38 166 55.06C166.38 53.75 166.31 51.09 166.12 50.25C165.94 49.41 165.36 48.81 164.44 48.06C163.51 47.31 159.18 44.85 158.44 44C157.69 43.15 158.12 41.5 158.25 40.94C158.38 40.38 159.17 39.48 159.5 39.31C159.83 39.15 160.95 39.11 161 39.56C161.05 40.01 159.97 42.52 159.94 43.06C159.9 43.61 159.64 44.02 160.69 44.12C161.74 44.23 167.53 44.54 168.69 43.94C169.85 43.34 170.18 39.92 170.38 39.12C170.57 38.33 170.48 37.81 170.31 37.31C170.15 36.82 169.51 35.45 169 35ZM186.56 29.88C185.38 29.75 178.49 29.33 177.19 29.81C175.88 30.29 176.18 33.22 175.69 33.88C175.2 34.53 173.57 34.63 173.12 35.25C172.68 35.87 171.88 38.42 171.94 39.06C172 39.71 174.23 38.08 173.62 40.62C173.02 43.17 167.68 57.7 166.88 60.31C166.07 62.93 166.76 61.97 166.94 62.44C167.12 62.9 167.29 63.87 168.38 64.19C169.46 64.51 174.75 65.12 176 65.12C177.25 65.13 178.33 64.88 178.81 64.25C179.29 63.62 180.09 60.51 180 59.88C179.91 59.24 178.35 59.23 178.06 59C177.78 58.77 176.99 60.21 177.62 58C178.26 55.79 182.28 42.84 183.38 40.56C184.47 38.28 186.19 39.59 186.75 39C187.31 38.41 187.94 36.15 188.06 35.62C188.18 35.1 188 34.84 187.75 34.62C187.5 34.41 186.08 34.27 186 33.81C185.92 33.35 187 31.29 187.06 30.81C187.13 30.34 187.75 30 186.56 29.88ZM206.69 34.19C205.88 33.77 203.21 33.08 202.31 32.94C201.41 32.8 200.26 32.77 199.19 33C198.12 33.23 194.46 34.34 193.38 34.88C192.29 35.41 190.96 36.47 190.19 37.44C189.41 38.41 187.91 40.5 186.94 42.94C185.96 45.38 182.68 55.64 182.06 57.75C181.45 59.86 181.62 59.77 181.81 60.5C182 61.23 183.04 63.25 183.62 63.81C184.21 64.38 185.34 65.03 186.69 65.19C188.04 65.34 193.44 65.31 194.88 65.12C196.31 64.94 197.66 64.28 198.62 63.62C199.59 62.97 202.06 60.98 202.94 59.69C203.81 58.4 205.12 55.22 205.94 52.88C206.75 50.53 209.38 42.1 209.75 40.12C210.12 38.15 209.37 37.09 209 36.38C208.63 35.66 207.49 34.6 206.69 34.19ZM199.5 39.19C199.67 39.35 200.16 39.46 199.56 41.56C198.97 43.66 195.42 54.54 194.56 56.69C193.71 58.83 192.7 59.48 192.44 59.44C192.18 59.39 191.69 58.62 192.38 56.31C193.06 54 197.27 42.24 198.12 40.19C198.98 38.13 199.33 39.02 199.5 39.19ZM234.62 34.12C234.09 33.71 232.31 32.98 231.44 32.94C230.57 32.89 228.06 33.52 227.38 33.75C226.69 33.98 226.12 34.83 225.75 34.81C225.38 34.8 225.59 33.72 224.31 33.62C223.03 33.53 217.39 30.41 215.06 34C212.74 37.59 206.12 59.87 204.94 63.56C203.75 67.26 204.18 64.62 205.19 64.81C206.2 65 212.21 65.17 213.38 65.12C214.54 65.08 213.96 66.9 214.94 64.44C215.91 61.98 220.39 47.66 221.5 44.62C222.61 41.59 223.75 39.8 224.19 39.19C224.63 38.57 226.03 36.46 225.19 39.5C224.35 42.54 217.1 61.42 217.19 64.5C217.28 67.58 224.74 65.13 225.94 65.12C227.14 65.12 226.09 67.31 227.19 64.44C228.28 61.56 234.02 44.55 235.06 41.19C236.1 37.82 235.93 37.22 235.88 36.38C235.82 35.53 235.16 34.54 234.62 34.12ZM256.62 34.19C255.88 33.83 253.49 33.14 252.56 33C251.63 32.86 249.99 32.75 248.88 33C247.76 33.25 244.31 34.5 243.25 35.06C242.19 35.62 240.76 36.7 240 37.69C239.24 38.67 237.8 41.11 236.94 43.25C236.07 45.39 233.37 53.47 232.81 55.5C232.26 57.53 232.12 59.18 232.31 60.19C232.5 61.19 233.44 63.23 234.38 63.88C235.31 64.52 238.81 65.41 240.12 65.56C241.44 65.71 244.16 65.43 245.31 65.12C246.46 64.82 248.76 63.66 249.69 63C250.61 62.34 252.23 60.83 253 59.62C253.77 58.42 255.84 53.98 256.12 53C256.41 52.02 256.45 51.67 255.38 51.5C254.3 51.33 248.52 50.72 247.19 51.56C245.85 52.4 244.79 57.55 244.25 58.5C243.71 59.45 242.94 59.58 242.69 59.5C242.44 59.42 241.92 58.97 242.19 57.88C242.46 56.78 243.25 51.29 244.94 50.38C246.62 49.46 254.8 50.33 256.25 50.25C257.7 50.17 256.56 50.8 257 49.69C257.44 48.58 259.58 42.37 259.94 41C260.29 39.63 260.08 38.85 259.94 38.25C259.8 37.65 259.15 36.49 258.75 36C258.35 35.51 257.37 34.55 256.62 34.19ZM249.62 39.19C249.84 39.2 250.16 39.33 250.06 39.88C249.97 40.42 249.13 43.21 248.81 43.75C248.5 44.29 247.65 44.39 247.44 44.38C247.23 44.36 246.96 44.17 247.06 43.62C247.17 43.08 248 40.34 248.31 39.81C248.62 39.28 249.41 39.18 249.62 39.19Z"/>
</g>
</svg>