<?xml version="1.0" encoding="UTF-8"?>
<svg xmlns="http://www.w3.org/2000/svg" viewBox="0 0 266 76" role="img" aria-labelledby="title desc" shape-rendering="geometricPrecision">
<title id="title">Kinstone logo</title>
<desc id="desc">Smooth vector SVG rebuilt from clean curves with transparent background.</desc>
<g transform="translate(3 3)">
<path fill="#f41111" d="M27 0L6 63L28 63L31 54L44 45L50 63L75 63L65 32L89 15L61 15L41 29L49 0Z"/>
<path fill="#292929" stroke="#292929" stroke-width="2" stroke-linejoin="round" stroke-linecap="round" d="M87.925 28.891L88.794 24.14L94.719 24.14L93.849 28.891L87.925 28.891ZM82.747 58.2L87.153 33.371L93.078 33.371L88.639 58.2L82.747 58.2ZM109.493 58.2L111.979 44.548Q112.053 44.107 112.151 43.579Q112.258 43.05 112.332 42.528Q112.414 42 112.463 41.53Q112.512 41.06 112.512 40.759Q112.512 39.312 111.716 38.555Q110.929 37.799 109.337 37.799Q108.336 37.799 107.343 38.262Q106.358 38.717 105.513 39.569Q104.668 40.413 104.027 41.618Q103.387 42.822 103.133 44.291L100.647 58.2L94.722 58.2L98.21 38.673Q98.357 37.887 98.489 37.028Q98.62 36.169 98.718 35.39L98.899 34.083Q98.973 33.532 99.006 33.371L104.643 33.371Q104.643 33.481 104.594 33.988Q104.544 34.494 104.462 35.148Q104.389 35.802 104.298 36.477Q104.208 37.153 104.134 37.615L104.208 37.615Q104.848 36.653 105.603 35.802Q106.358 34.95 107.31 34.311Q108.262 33.665 109.427 33.297Q110.592 32.93 112.028 32.93Q115.237 32.93 116.845 34.612Q118.462 36.286 118.462 39.451Q118.462 39.863 118.412 40.391Q118.363 40.92 118.289 41.449L118.183 42.411Q118.109 42.896 118.027 43.211L115.36 58.2L109.493 58.2ZM129.336 67.953Q127.129 67.953 125.512 67.527Q123.904 67.108 122.788 66.278Q121.672 65.456 121.032 64.244Q120.392 63.04 120.129 61.461L126.079 60.77Q126.366 62.283 127.359 62.981Q128.36 63.686 130.058 63.686Q131.289 63.686 132.184 63.326Q133.078 62.973 133.735 62.224Q134.391 61.483 134.851 60.322Q135.31 59.162 135.647 57.583Q135.778 56.915 135.876 56.225L136.106 54.917Q136.213 54.227 136.287 53.588L136.237 53.588Q135.647 54.506 134.99 55.38Q134.342 56.247 133.464 56.915Q132.594 57.583 131.453 57.987Q130.313 58.384 128.803 58.384Q127.129 58.384 125.791 57.767Q124.462 57.143 123.551 56.041Q122.649 54.939 122.148 53.405Q121.647 51.862 121.647 50.026Q121.647 48.903 121.746 47.618Q121.853 46.333 122.107 44.886Q123.182 38.901 125.709 35.919Q128.237 32.93 132.619 32.93Q133.825 32.93 134.9 33.253Q135.983 33.576 136.836 34.186Q137.698 34.788 138.313 35.677Q138.929 36.558 139.232 37.704L139.29 37.704Q139.388 37.109 139.544 36.396L139.823 35.023Q139.979 34.377 140.102 33.907Q140.234 33.437 140.291 33.371L145.855 33.371Q145.797 33.576 145.699 34.083L145.469 35.295Q145.313 35.985 145.157 36.859L144.829 38.622L141.366 57.972Q140.906 60.447 140.028 62.32Q139.159 64.192 137.747 65.441Q136.336 66.689 134.268 67.321Q132.208 67.953 129.336 67.953ZM137.796 45.62Q137.952 44.82 138.018 43.953Q138.084 43.079 138.084 42.455Q138.084 41.148 137.764 40.2Q137.444 39.246 136.886 38.607Q136.336 37.961 135.564 37.652Q134.801 37.336 133.899 37.336Q132.824 37.336 131.962 37.696Q131.109 38.049 130.411 38.915Q129.722 39.775 129.197 41.229Q128.672 42.683 128.286 44.864Q128.105 46.017 127.966 47.14Q127.826 48.264 127.826 49.108Q127.826 51.473 128.762 52.575Q129.697 53.676 131.47 53.676Q132.389 53.676 133.365 53.228Q134.342 52.78 135.195 51.811Q136.057 50.834 136.738 49.307Q137.419 47.779 137.796 45.62ZM167.627 50.533Q167.627 52.575 166.921 54.102Q166.215 55.63 164.853 56.643Q163.491 57.649 161.53 58.156Q159.569 58.663 157.058 58.663Q152.823 58.663 150.378 57.032Q147.933 55.402 147.079 51.98L152.364 51.157Q152.569 51.98 152.938 52.589Q153.316 53.199 153.931 53.603Q154.547 53.999 155.416 54.198Q156.286 54.389 157.468 54.389Q158.494 54.389 159.347 54.22Q160.209 54.043 160.824 53.669Q161.439 53.287 161.784 52.692Q162.137 52.097 162.137 51.268Q162.137 50.533 161.85 50.063Q161.571 49.593 160.988 49.263Q160.414 48.925 159.519 48.668Q158.625 48.403 157.419 48.124Q155.753 47.713 154.35 47.14Q152.955 46.568 151.954 45.686Q150.952 44.798 150.378 43.549Q149.804 42.293 149.804 40.553Q149.804 38.489 150.591 37.057Q151.387 35.618 152.758 34.715Q154.136 33.804 155.991 33.393Q157.854 32.982 159.979 32.982Q161.932 32.982 163.507 33.312Q165.083 33.643 166.207 34.428Q167.339 35.207 168.07 36.47Q168.8 37.726 169.087 39.591L163.803 40.252Q163.442 38.673 162.4 37.961Q161.366 37.248 159.593 37.248Q158.699 37.248 157.903 37.373Q157.107 37.498 156.532 37.821Q155.958 38.144 155.622 38.673Q155.285 39.194 155.285 40.002Q155.285 40.737 155.679 41.229Q156.081 41.721 156.795 42.08Q157.517 42.433 158.494 42.683L160.652 43.263Q162.112 43.63 163.376 44.159Q164.648 44.68 165.592 45.517Q166.543 46.355 167.085 47.574Q167.627 48.793 167.627 50.533ZM182.313 58.016Q181.55 58.266 180.557 58.413Q179.572 58.567 178.448 58.567Q177.217 58.567 176.2 58.244Q175.19 57.921 174.468 57.282Q173.754 56.636 173.369 55.666Q172.983 54.69 172.983 53.405Q172.983 52.369 173.098 51.4Q173.213 50.423 173.319 49.799L175.469 37.726L172.343 37.726L173.139 33.371L176.544 33.371L179.416 27.54L183.109 27.54L182.108 33.371L186.342 33.371L185.628 37.726L181.32 37.726L179.113 50.004Q179.031 50.467 178.957 51.121Q178.883 51.774 178.883 52.23Q178.932 53.199 179.433 53.669Q179.933 54.139 180.729 54.139Q181.238 54.139 181.747 54.058Q182.264 53.977 182.986 53.838L182.313 58.016ZM209.81 42.528Q209.81 46.266 208.784 49.263Q207.758 52.259 205.92 54.345Q204.09 56.43 201.587 57.546Q199.085 58.663 196.139 58.663Q193.882 58.663 192.044 57.987Q190.214 57.304 188.918 56.012Q187.621 54.712 186.915 52.846Q186.218 50.974 186.218 48.587Q186.218 45.025 187.186 42.139Q188.163 39.246 189.943 37.204Q191.724 35.155 194.21 34.046Q196.705 32.93 199.676 32.93Q202.162 32.93 204.057 33.576Q205.961 34.215 207.225 35.456Q208.497 36.698 209.153 38.475Q209.81 40.252 209.81 42.528ZM203.622 43.006Q203.622 41.493 203.311 40.413Q203.007 39.334 202.441 38.658Q201.883 37.983 201.07 37.66Q200.266 37.336 199.241 37.336Q198.322 37.336 197.37 37.579Q196.418 37.821 195.573 38.578Q194.727 39.334 194.022 40.737Q193.316 42.132 192.832 44.43Q192.602 45.532 192.512 46.509Q192.422 47.485 192.422 48.308Q192.422 49.96 192.742 51.084Q193.062 52.208 193.652 52.92Q194.243 53.632 195.031 53.941Q195.827 54.249 196.779 54.249Q197.731 54.249 198.65 54.021Q199.577 53.794 200.422 53.052Q201.267 52.303 201.957 50.915Q202.654 49.527 203.138 47.184Q203.368 45.987 203.467 44.996Q203.573 43.997 203.622 43.006ZM226.708 58.2L229.194 44.548Q229.268 44.107 229.366 43.579Q229.473 43.05 229.547 42.528Q229.629 42 229.678 41.53Q229.727 41.06 229.727 40.759Q229.727 39.312 228.931 38.555Q228.144 37.799 226.552 37.799Q225.55 37.799 224.558 38.262Q223.573 38.717 222.728 39.569Q221.882 40.413 221.242 41.618Q220.602 42.822 220.348 44.291L217.862 58.2L211.937 58.2L215.425 38.673Q215.572 37.887 215.704 37.028Q215.835 36.169 215.933 35.39L216.114 34.083Q216.188 33.532 216.22 33.371L221.858 33.371Q221.858 33.481 221.809 33.988Q221.759 34.494 221.677 35.148Q221.603 35.802 221.513 36.477Q221.423 37.153 221.349 37.615L221.423 37.615Q222.063 36.653 222.818 35.802Q223.573 34.95 224.525 34.311Q225.477 33.665 226.642 33.297Q227.807 32.93 229.243 32.93Q232.452 32.93 234.06 34.612Q235.676 36.286 235.676 39.451Q235.676 39.863 235.627 40.391Q235.578 40.92 235.504 41.449L235.397 42.411Q235.324 42.896 235.242 43.211L232.575 58.2L226.708 58.2ZM245.041 47.273Q244.959 47.779 244.918 48.286Q244.885 48.793 244.885 49.321Q244.885 51.752 245.862 53.052Q246.838 54.345 248.759 54.345Q249.628 54.345 250.318 54.051Q251.015 53.75 251.565 53.236Q252.115 52.714 252.525 52.002Q252.935 51.29 253.223 50.467L258.376 52.163Q257.736 53.632 256.94 54.837Q256.144 56.041 254.987 56.893Q253.838 57.737 252.221 58.2Q250.605 58.663 248.348 58.663Q246.042 58.663 244.254 57.95Q242.473 57.238 241.267 55.931Q240.069 54.616 239.453 52.758Q238.838 50.9 238.838 48.609Q238.838 44.842 239.74 41.926Q240.651 39.011 242.276 37.006Q243.909 35.001 246.166 33.958Q248.422 32.908 251.089 32.908Q253.452 32.908 255.167 33.598Q256.891 34.289 258.031 35.537Q259.172 36.786 259.705 38.519Q260.247 40.252 260.247 42.345Q260.247 43.373 260.115 44.717Q259.992 46.061 259.763 47.273L245.041 47.273ZM254.782 42.984Q254.839 42.617 254.847 42.323Q254.864 42.022 254.864 41.699Q254.864 39.246 253.805 38.122Q252.755 36.991 251.089 36.991Q250.375 36.991 249.579 37.248Q248.783 37.498 248.028 38.181Q247.273 38.857 246.683 40.017Q246.092 41.17 245.731 42.984L254.782 42.984Z"/>
</g>
</svg>
