<?xml version="1.0" encoding="UTF-8"?>
<svg xmlns="http://www.w3.org/2000/svg" viewBox="35 0 2045 560" role="img" aria-labelledby="ks-title">
  <title id="ks-title">Kingstone</title>
  <g transform="translate(0.000000,560.000000) scale(0.100000,-0.100000)" stroke="none">
    <path fill="#292929" fill-rule="evenodd" d="M7525 3441 c-305 -19 -417 -219 -229 -412 64 -65 63 -67 -50 -114
-204 -85 -164 4 -622 -1370 -309 -927 -315 -947 -262 -1025 86 -129 547 -125
668 6 55 60 260 625 505 1394 24 74 89 269 145 432 135 394 136 440 16 557
-44 44 -46 81 -4 81 56 0 215 116 248 180 104 203 -35 294 -415 271z"/>
    <path fill="#292929" fill-rule="evenodd" d="M14333 3210 c-104 -22 -150 -65 -219 -203 -37 -72 -64 -109 -139
-186 -137 -141 -157 -205 -119 -368 29 -123 24 -141 -201 -818 -346 -1042
-344 -1114 31 -1180 486 -86 724 65 582 369 -76 162 -84 124 214 1009 158 469
180 515 273 586 198 152 224 222 152 402 -18 46 -29 96 -35 171 -17 203 -219
285 -539 218z"/>
    <path fill="#292929" fill-rule="evenodd" d="M12790 2909 c-482 -28 -775 -280 -892 -767 -74 -312 14 -465 458
-787 123 -90 160 -182 120 -303 -80 -239 -246 -231 -246 13 0 187 -41 226
-241 233 -330 12 -471 -128 -473 -468 -4 -608 1208 -599 1565 12 304 520 266
751 -173 1046 -274 185 -347 369 -193 490 76 60 125 24 160 -117 36 -150 212
-212 457 -162 202 42 330 350 231 552 -104 210 -326 284 -773 258z"/>
    <path fill="#292929" fill-rule="evenodd" d="M9258 2900 c-27 -5 -92 -23 -145 -41 -125 -41 -172 -41 -293 2 -290
103 -622 38 -710 -139 -36 -73 -665 -1946 -685 -2042 -42 -192 24 -245 305
-245 376 1 368 -8 632 785 384 1152 423 1236 525 1134 48 -48 15 -174 -249
-944 -263 -766 -269 -791 -215 -883 89 -151 568 -136 672 21 44 67 573 1619
640 1876 91 353 -96 540 -477 476z"/>
    <path fill="#292929" fill-rule="evenodd" d="M10505 2893 c-309 -66 -424 -245 -719 -1123 -252 -753 -254 -810 -33
-1015 124 -114 120 -120 -108 -160 -342 -59 -378 -298 -78 -505 34 -23 69 -53
78 -66 27 -42 740 -37 793 6 20 16 66 41 102 56 281 113 471 271 564 468 143
302 737 2110 721 2195 -28 151 -322 205 -595 108 -134 -47 -176 -48 -283 -3
-143 59 -290 72 -442 39z m391 -534 c73 -81 -272 -1103 -375 -1110 -131 -10
-97 169 175 920 69 190 139 257 200 190z m-549 -1641 c68 -64 -19 -208 -126
-208 -113 0 -257 125 -183 160 134 63 270 85 309 48z"/>
    <path fill="#292929" fill-rule="evenodd" d="M15815 2900 c-368 -55 -671 -329 -845 -765 -302 -752 -420 -1296
-326 -1500 140 -307 835 -340 1258 -59 313 208 475 526 784 1539 178 584 -163
891 -871 785z m121 -555 c39 -60 -8 -234 -270 -990 -130 -375 -156 -425 -222
-425 -114 0 -89 108 273 1155 94 273 160 350 219 260z"/>
    <path fill="#292929" fill-rule="evenodd" d="M18295 2895 c-33 -7 -97 -27 -143 -44 -108 -40 -147 -39 -268 6 -261
96 -594 50 -680 -95 -56 -93 -703 -1984 -719 -2103 -24 -170 79 -235 359 -227
350 11 307 -59 720 1183 226 682 269 775 351 775 108 0 71 -170 -222 -1010
-307 -880 -306 -942 24 -957 293 -14 403 36 487 219 46 99 571 1667 590 1762
80 385 -115 576 -499 491z"/>
    <path fill="#292929" fill-rule="evenodd" d="M19835 2899 c-336 -51 -617 -266 -775 -593 -102 -212 -375 -1001
-425 -1229 -209 -950 1331 -923 1722 29 100 242 18 389 -229 411 -225 20 -352
-74 -458 -337 -88 -219 -146 -289 -217 -265 -77 27 -78 117 -2 345 106 322
158 354 480 299 313 -54 567 41 659 244 31 69 121 347 144 447 68 287 -78 547
-354 635 -64 21 -441 30 -545 14z m114 -542 c53 -64 -19 -247 -96 -247 -63 0
-83 80 -43 168 35 77 106 117 139 79z"/>
    <path fill="#f41111" fill-rule="evenodd" d="M2150 5577 c0 -13 -14 -73 -31 -133 -16 -60 -41 -162 -54 -228 -19
-96 -35 -142 -80 -235 -31 -64 -74 -172 -95 -241 -49 -158 -209 -633 -244
-723 -14 -37 -41 -128 -60 -202 -19 -74 -58 -189 -87 -257 -35 -83 -59 -161
-75 -238 -26 -130 -36 -161 -92 -280 -22 -47 -54 -134 -72 -195 -17 -60 -51
-159 -76 -220 -25 -60 -60 -170 -80 -244 -19 -74 -57 -188 -85 -255 -27 -66
-65 -178 -85 -250 -19 -71 -53 -176 -75 -233 -23 -58 -54 -152 -71 -211 -16
-59 -53 -163 -83 -232 -29 -69 -63 -163 -75 -210 -12 -47 -40 -134 -63 -195
-127 -335 -85 -351 942 -342 821 7 816 6 892 237 17 52 54 148 81 213 27 66
61 155 74 200 53 179 118 254 339 390 77 47 187 120 244 162 313 226 451 197
520 -111 11 -49 47 -165 79 -259 36 -102 70 -225 86 -309 106 -543 49 -516
1126 -523 1144 -7 1177 1 1133 287 -10 64 -24 102 -96 265 -20 44 -47 132 -62
194 -16 73 -45 159 -79 235 -29 67 -60 153 -69 191 -9 39 -23 104 -33 145 -18
81 -111 348 -200 578 -31 78 -73 195 -94 260 -21 64 -49 150 -64 189 -63 174
-24 255 188 393 66 44 202 137 301 206 184 128 549 371 691 459 43 27 149 102
234 165 85 64 182 135 215 157 183 124 190 245 18 285 -103 23 -1794 19 -1898
-5 -222 -52 -396 -123 -521 -214 -44 -31 -137 -97 -209 -146 -71 -50 -209
-152 -305 -227 -361 -281 -569 -420 -628 -420 -119 0 -132 162 -31 370 63 128
189 483 262 740 14 47 46 136 72 199 36 86 53 145 70 247 28 162 35 183 97
307 48 97 78 193 78 255 0 32 0 32 -935 32 -935 0 -935 0 -935 -23z"/>
  </g>
</svg>
