<?xml version="1.0" encoding="UTF-8"?>
<svg xmlns="http://www.w3.org/2000/svg" viewBox="0 0 266 76" role="img" aria-labelledby="title desc" shape-rendering="geometricPrecision">
<title id="title">Kinstone logo</title>
<desc id="desc">Super smooth rebuilt vector SVG logo with transparent background for website use.</desc>
<g transform="translate(3 3)">
<path fill="#f41111" d="M27 0L6 63L28 63L31 54L44 45L50 63L75 63L65 32L89 15L61 15L41 29L49 0Z"/>
<path fill="#292929" fill-rule="nonzero" d="M92.545 29.67Q90.711 29.67 89.674 28.965Q88.638 28.26 88.638 26.71Q88.638 24.786 89.899 23.258Q91.16 21.731 93.782 21.731Q95.569 21.731 96.653 22.436Q97.743 23.141 97.743 24.69Q97.743 26.85 96.359 28.26Q94.974 29.67 92.545 29.67ZM81.706 58.2L87.547 32.21L95.91 32.21L90.069 58.2L81.706 58.2ZM95.074 58.2L100.861 32.21L107.599 32.21L107.452 35.405L107.599 35.405Q108.783 33.62 110.292 32.68Q111.808 31.74 113.734 31.74Q116.365 31.74 118.121 33.29Q119.877 34.84 119.877 38.181Q119.877 39.07 119.776 40.127Q119.676 41.185 119.382 42.455L115.869 58.2L107.499 58.2L110.717 43.821Q110.918 42.925 111.065 41.963Q111.212 41.001 111.212 40.34Q111.212 38.6 109.928 38.6Q108.737 38.6 107.893 40.391Q107.05 42.176 106.362 44.996L103.437 58.2L95.074 58.2ZM128.145 69.48Q125.623 69.48 123.612 69.032Q121.608 68.584 120.123 67.93L120.223 61.115Q121.608 61.916 123.782 62.503Q125.964 63.091 127.998 63.091Q129.878 63.091 130.938 62.1Q132.006 61.115 132.4 59.566L132.602 58.714Q132.749 58.105 132.919 57.4Q133.097 56.695 133.391 55.894L133.244 55.894Q132.106 57.304 130.869 57.943Q129.631 58.575 127.851 58.575Q125.275 58.575 123.635 56.606Q122.003 54.631 122.003 50.636Q122.003 48.609 122.421 46.12Q122.846 43.63 123.736 41.118Q124.633 38.6 125.964 36.463Q127.302 34.325 129.136 33.033Q130.969 31.74 133.298 31.74Q135.325 31.74 136.439 32.585Q137.553 33.43 138.342 35.361L138.497 35.361L139.634 32.21L146.759 32.21L140.671 59.375Q139.433 64.92 136.137 67.196Q132.849 69.48 128.145 69.48ZM131.959 51.95Q132.95 51.95 133.762 50.731Q134.582 49.505 135.147 47.676Q135.719 45.84 136.013 43.96Q136.315 42.08 136.315 40.81Q136.315 39.73 135.944 39.099Q135.572 38.46 134.876 38.46Q133.886 38.46 133.12 39.708Q132.354 40.95 131.805 42.763Q131.263 44.57 130.961 46.355Q130.667 48.139 130.667 49.226Q130.667 51.95 131.959 51.95ZM153.845 58.67Q151.215 58.67 149.529 58.295Q147.85 57.921 146.364 57.165L146.419 50.115Q148.097 51.15 149.83 51.642Q151.563 52.134 153.002 52.134Q153.845 52.134 154.681 51.76Q155.524 51.385 155.524 50.445Q155.524 49.784 155.029 49.035Q154.534 48.286 152.801 47.015Q150.875 45.51 149.977 43.916Q149.088 42.315 149.088 40.34Q149.088 37.895 150.147 35.948Q151.215 33.995 153.343 32.871Q155.478 31.74 158.742 31.74Q161.172 31.74 163.299 32.379Q165.427 33.011 167.013 34.039L164.042 39.775Q162.804 38.79 161.489 38.298Q160.181 37.799 159.338 37.799Q158.642 37.799 158.17 38.181Q157.706 38.555 157.706 39.305Q157.706 39.965 158.17 40.509Q158.642 41.045 160.228 42.22Q162.208 43.63 163.245 45.209Q164.289 46.78 164.289 49.41Q164.289 52.09 163.028 54.183Q161.767 56.276 159.439 57.473Q157.11 58.67 153.845 58.67ZM174.786 58.67Q171.521 58.67 170.106 57.025Q168.698 55.38 168.698 52.604Q168.698 51.715 168.868 50.658Q169.046 49.6 169.293 48.374L171.367 38.6L168.643 38.6L169.541 34.56L173.695 32.445L176.62 26.989L182.414 26.989L181.223 32.21L186.468 32.21L184.936 38.6L179.737 38.6L177.463 48.991Q177.362 49.41 177.285 49.835Q177.215 50.254 177.215 50.585Q177.215 51.899 178.499 51.899Q178.995 51.899 179.962 51.715Q180.929 51.525 181.919 51.106L181.865 57.304Q180.434 58.009 178.499 58.34Q176.565 58.67 174.786 58.67ZM195.182 58.67Q190.881 58.67 188.552 56.225Q186.223 53.779 186.223 49.461Q186.223 47.25 186.718 44.805Q187.214 42.36 188.25 40.039Q189.295 37.711 190.95 35.831Q192.614 33.951 194.865 32.849Q197.116 31.74 200.087 31.74Q204.295 31.74 206.624 34.208Q208.953 36.675 208.953 40.95Q208.953 43.865 208.133 46.971Q207.313 50.07 205.657 52.729Q204.001 55.38 201.371 57.025Q198.748 58.67 195.182 58.67ZM196.226 52.23Q197.116 52.23 197.905 51.055Q198.702 49.88 199.267 48.095Q199.839 46.31 200.156 44.386Q200.481 42.455 200.481 40.854Q200.481 38.181 198.95 38.181Q198.006 38.181 197.24 39.356Q196.474 40.531 195.878 42.315Q195.283 44.1 194.981 46.053Q194.687 48 194.687 49.549Q194.687 52.23 196.226 52.23ZM209.695 58.2L215.482 32.21L222.22 32.21L222.073 35.405L222.22 35.405Q223.404 33.62 224.913 32.68Q226.429 31.74 228.355 31.74Q230.986 31.74 232.742 33.29Q234.498 34.84 234.498 38.181Q234.498 39.07 234.397 40.127Q234.297 41.185 234.003 42.455L230.49 58.2L222.12 58.2L225.338 43.821Q225.539 42.925 225.686 41.963Q225.833 41.001 225.833 40.34Q225.833 38.6 224.549 38.6Q223.358 38.6 222.514 40.391Q221.671 42.176 220.983 44.996L218.058 58.2L209.695 58.2ZM246.031 58.67Q241.676 58.67 239.223 56.225Q236.778 53.779 236.778 49.549Q236.778 46.45 237.591 43.329Q238.411 40.2 240.113 37.571Q241.823 34.935 244.523 33.363Q247.222 31.785 250.982 31.785Q254.696 31.785 256.947 33.643Q259.206 35.5 259.206 38.6Q259.206 43.204 255.663 45.554Q252.127 47.904 245.884 47.904L245.141 47.904Q245.041 48.521 245.041 49.079Q245.041 50.959 245.807 51.738Q246.58 52.516 248.166 52.516Q249.992 52.516 251.555 52.068Q253.118 51.62 255.098 50.489L255.044 56.32Q252.87 57.59 250.735 58.134Q248.607 58.67 246.031 58.67ZM246.48 42.455Q249.497 42.455 250.51 41.515Q251.532 40.575 251.532 39.305Q251.532 38.6 251.06 38.159Q250.588 37.711 249.799 37.711Q248.661 37.711 247.741 38.981Q246.828 40.245 246.279 42.455L246.48 42.455Z"/>
</g>
</svg>
